<svg width="180" height="59" viewBox="0 0 180 59" fill="none" xmlns="http://www.w3.org/2000/svg">
<path d="M46.875 1.59375C46.4375 2.03125 46 2.46875 45.5625 2.90625C45.125 3.3125 44.7812 3.82812 44.5312 4.45312C44.1562 4.51562 43.7656 4.59375 43.3594 4.6875C42.9531 4.78125 42.5625 4.82812 42.1875 4.82812C41.9375 4.82812 41.6875 4.79688 41.4375 4.73438C41.1875 4.64062 40.9375 4.59375 40.6875 4.59375C40.4688 4.59375 40.3594 4.70312 40.3594 4.92188C40.3594 5.14062 40.2969 5.3125 40.1719 5.4375C39.9219 5.34375 39.6562 5.28125 39.375 5.25C39.0938 5.21875 38.8125 5.20312 38.5312 5.20312C37.875 5.20312 37.2188 5.3125 36.5625 5.53125C35.9375 5.71875 35.3125 5.95312 34.6875 6.23438C34.0625 6.48438 33.4375 6.75 32.8125 7.03125C32.1875 7.3125 31.5469 7.53125 30.8906 7.6875C30.9219 7.71875 30.9375 7.79688 30.9375 7.92188C30.9375 8.14062 30.875 8.32812 30.75 8.48438C30.625 8.60938 30.5625 8.78125 30.5625 9V9.14062C30.9375 9.95312 31.3125 10.7344 31.6875 11.4844C32.0625 12.2344 32.4219 13.0156 32.7656 13.8281C32.9531 14.2344 33.1094 14.625 33.2344 15C33.3594 15.375 33.5 15.7812 33.6562 16.2188C33.7188 16.4688 33.8281 16.6406 33.9844 16.7344C34.1406 16.7969 34.2969 16.9062 34.4531 17.0625C34.3906 17.25 34.3594 17.4219 34.3594 17.5781C34.3594 18.1719 34.5 18.75 34.7812 19.3125C35.0625 19.8438 35.2031 20.3906 35.2031 20.9531C35.2031 21.1094 35.1719 21.3125 35.1094 21.5625C35.4844 22.0938 35.75 22.7031 35.9062 23.3906C36.0625 24.0781 36.2031 24.7812 36.3281 25.5C36.4531 26.1875 36.5781 26.875 36.7031 27.5625C36.8594 28.2188 37.125 28.8125 37.5 29.3438C37.2812 29.7188 37.1406 30.125 37.0781 30.5625C37.0156 30.9688 36.9844 31.3906 36.9844 31.8281C36.9844 32.8281 37.0781 33.8438 37.2656 34.875C37.4844 35.875 37.5938 36.875 37.5938 37.875C37.5938 38.5625 37.5156 39.125 37.3594 39.5625C37.4219 40.0312 37.5781 40.375 37.8281 40.5938C37.7031 40.8125 37.6562 41.0781 37.6875 41.3906C37.7188 41.6719 37.6562 41.9219 37.5 42.1406C37.6562 42.7656 37.7344 43.3438 37.7344 43.875C37.7344 44.6562 37.625 45.4375 37.4062 46.2188C37.2188 46.9688 37.125 47.75 37.125 48.5625C37.125 48.7812 37.1406 48.9844 37.1719 49.1719C37.2031 49.3906 37.2656 49.625 37.3594 49.875C37.2969 50.0625 37.1719 50.1719 36.9844 50.2031C36.8281 50.2656 36.7188 50.375 36.6562 50.5312V50.6719C36.6562 51.1406 36.5938 51.5469 36.4688 51.8906C36.375 52.2656 36.25 52.6094 36.0938 52.9219L35.6719 53.9062C35.5469 54.25 35.4375 54.625 35.3438 55.0312C34.5312 55.4688 33.75 55.8906 33 56.2969C32.2812 56.7031 31.5781 57.25 30.8906 57.9375C30.7656 57.9688 30.5781 57.9844 30.3281 57.9844C30.1094 57.9844 29.8906 57.9688 29.6719 57.9375C29.4531 57.9375 29.2188 57.9375 28.9688 57.9375C28.625 57.9375 28.2656 57.9844 27.8906 58.0781C27.3906 57.6094 26.7812 57.2656 26.0625 57.0469C25.3438 56.8594 24.6719 56.5938 24.0469 56.25C23.8281 55.9688 23.5781 55.7188 23.2969 55.5L22.4531 54.8438C22.1719 54.625 21.9062 54.4062 21.6562 54.1875C21.4062 53.9688 21.1875 53.6875 21 53.3438H20.3438C20.3438 53.3125 20.3438 53.2812 20.3438 53.25C20.375 53.2188 20.3906 53.1875 20.3906 53.1562C20.3906 53 20.3125 52.9062 20.1562 52.875C20 52.8438 19.9531 52.7344 20.0156 52.5469C19.6406 52.2656 19.3281 51.9375 19.0781 51.5625C18.8281 51.1875 18.5781 50.7969 18.3281 50.3906C18.0781 50.0156 17.8281 49.6406 17.5781 49.2656C17.3281 48.9219 17.0156 48.6094 16.6406 48.3281V48.2344C16.6406 48.0781 16.5938 47.9844 16.5 47.9531C16.4062 47.8906 16.3906 47.7344 16.4531 47.4844C15.9531 46.8281 15.5312 46.1406 15.1875 45.4219C14.8438 44.7031 14.5156 43.9688 14.2031 43.2188C13.9219 42.4375 13.625 41.6719 13.3125 40.9219C13.0312 40.1719 12.6875 39.4531 12.2812 38.7656C12.2188 38.4531 12.1875 38.1406 12.1875 37.8281V36.8906C12.1875 35.9844 12.2656 35.125 12.4219 34.3125C12.5781 33.4688 12.875 32.6562 13.3125 31.875C13.5625 31.8125 13.8438 31.7969 14.1562 31.8281C14.5 31.8281 14.8125 31.8281 15.0938 31.8281C15.375 31.8281 15.6406 31.8125 15.8906 31.7812C16.1719 31.7188 16.4219 31.5781 16.6406 31.3594C16.6094 31.4844 16.6406 31.5781 16.7344 31.6406C16.8281 31.6719 16.9219 31.6875 17.0156 31.6875C17.1719 31.6875 17.3125 31.6719 17.4375 31.6406C17.5938 31.5781 17.75 31.5469 17.9062 31.5469C17.9688 31.5469 18.0469 31.5625 18.1406 31.5938C18.2656 31.625 18.3281 31.7188 18.3281 31.875C18.5156 31.8125 18.6875 31.7344 18.8438 31.6406C19 31.5469 19.1719 31.4531 19.3594 31.3594C19.8906 31.8281 20.5156 32.1875 21.2344 32.4375C21.9531 32.6562 22.6875 32.875 23.4375 33.0938C24.1875 33.2812 24.9219 33.5 25.6406 33.75C26.3594 33.9688 27 34.2969 27.5625 34.7344C27.7188 35.0469 27.7969 35.375 27.7969 35.7188C27.7969 36.25 27.5781 36.7188 27.1406 37.125C26.7031 37.5 26.2344 37.7656 25.7344 37.9219C25.0156 37.4219 24.2031 37.0625 23.2969 36.8438C22.4219 36.625 21.5938 36.3125 20.8125 35.9062C20.1875 36.1562 19.5 36.2969 18.75 36.3281C18.0312 36.3281 17.3281 36.3594 16.6406 36.4219C16.4844 36.5469 16.4219 36.7656 16.4531 37.0781C16.5156 37.3906 16.4688 37.625 16.3125 37.7812C16.7188 39 17.25 40.1875 17.9062 41.3438C18.5625 42.4688 19.1562 43.625 19.6875 44.8125C19.75 45 19.8594 45.1406 20.0156 45.2344C20.1719 45.2969 20.3281 45.375 20.4844 45.4688V45.6094C20.4844 45.7969 20.5312 45.9375 20.625 46.0312C20.7188 46.0938 20.7344 46.25 20.6719 46.5C21.0469 46.5625 21.3125 46.7656 21.4688 47.1094C21.6562 47.4531 21.8438 47.75 22.0312 48C22.1562 48.1562 22.2812 48.2969 22.4062 48.4219C22.5625 48.5469 22.7031 48.6875 22.8281 48.8438C23.3594 49.4375 23.9375 50.0625 24.5625 50.7188C25.1875 51.375 25.8438 51.875 26.5312 52.2188C26.625 52.2812 26.7031 52.3125 26.7656 52.3125C26.8594 52.3125 26.9531 52.3281 27.0469 52.3594C27.3906 52.5469 27.7656 52.7188 28.1719 52.875C28.5781 53.0625 29 53.1562 29.4375 53.1562C29.6562 53.1562 29.875 53.1094 30.0938 53.0156C30.3438 52.9219 30.5 52.7656 30.5625 52.5469C30.7188 52.2656 30.8281 51.9375 30.8906 51.5625C30.9844 51.2188 31.0625 50.8906 31.125 50.5781C31.375 49.6719 31.6094 48.7656 31.8281 47.8594C32.0781 46.9531 32.2812 46.0469 32.4375 45.1406C32.375 44.7344 32.3281 44.3281 32.2969 43.9219C32.2656 43.5156 32.25 43.1094 32.25 42.7031C32.25 41.9844 32.2656 41.2656 32.2969 40.5469C32.3594 39.8281 32.3906 39.1094 32.3906 38.3906C32.3906 37.7344 32.3438 37.0938 32.25 36.4688C32.1875 35.8125 32.0312 35.1719 31.7812 34.5469C31.8438 34.4219 31.9219 34.3281 32.0156 34.2656C32.1094 34.2031 32.1562 34.0938 32.1562 33.9375C32.1562 33.75 32.0938 33.5 31.9688 33.1875C31.875 32.8438 31.75 32.625 31.5938 32.5312C31.8125 32.2188 31.9219 31.8281 31.9219 31.3594C31.9219 30.8281 31.8438 30.2969 31.6875 29.7656C31.5312 29.2344 31.4531 28.7031 31.4531 28.1719C31.4531 27.8281 31.5 27.4844 31.5938 27.1406C31.5938 26.9219 31.4844 26.8125 31.2656 26.8125C31.0469 26.8125 30.9219 26.7031 30.8906 26.4844C30.8906 26.4219 30.8906 26.3594 30.8906 26.2969C30.9219 26.2344 30.9375 26.1719 30.9375 26.1094C30.9375 25.7031 30.875 25.3281 30.75 24.9844C30.6562 24.6094 30.5938 24.2188 30.5625 23.8125C30.2812 23.5 30.0781 23.1094 29.9531 22.6406C29.8281 22.1719 29.7031 21.7031 29.5781 21.2344C29.4531 20.7344 29.3125 20.2656 29.1562 19.8281C29 19.3906 28.75 19.0312 28.4062 18.75C28.4062 18.3438 28.3438 17.9219 28.2188 17.4844C28.125 17.0469 27.8594 16.7344 27.4219 16.5469C27.2344 15.8281 26.9844 15.1562 26.6719 14.5312C26.3594 13.9062 25.9375 13.3438 25.4062 12.8438C25.4062 12.0938 25.25 11.5156 24.9375 11.1094C24.6562 10.7031 24.2969 10.2344 23.8594 9.70312C23.1406 9.76562 22.4219 9.90625 21.7031 10.125C20.9844 10.3438 20.2656 10.4531 19.5469 10.4531C19.3594 10.4531 19.1719 10.4531 18.9844 10.4531C18.8281 10.4219 18.6562 10.3906 18.4688 10.3594C18.3125 10.4531 18.2188 10.6094 18.1875 10.8281C18.1562 11.0156 18.1406 11.1875 18.1406 11.3438C17.5781 11.4062 17.0312 11.5156 16.5 11.6719C15.9688 11.7969 15.4219 11.9375 14.8594 12.0938C14.3281 12.2188 13.7969 12.3281 13.2656 12.4219C12.7344 12.5156 12.1875 12.5469 11.625 12.5156C11.4062 12.9531 11.0938 13.25 10.6875 13.4062C10.2812 13.5312 9.84375 13.625 9.375 13.6875C8.9375 13.75 8.5 13.8281 8.0625 13.9219C7.625 14.0156 7.28125 14.2188 7.03125 14.5312C6.90625 14.4062 6.75 14.3438 6.5625 14.3438C6.3125 14.3438 6.07812 14.4062 5.85938 14.5312C5.60938 14.6562 5.34375 14.7188 5.0625 14.7188C4.84375 14.7188 4.67188 14.6562 4.54688 14.5312C4.32812 14.6875 4.09375 14.8125 3.84375 14.9062C3.5625 14.9688 3.34375 15.125 3.1875 15.375C2.65625 15.2812 2.1875 15.0781 1.78125 14.7656C1.375 14.4531 1.04688 14.0781 0.796875 13.6406C0.515625 13.2031 0.3125 12.7344 0.1875 12.2344C0.0625 11.7031 0 11.1875 0 10.6875C0.1875 10.3438 0.484375 10.1094 0.890625 9.98438C1.29688 9.85938 1.625 9.64062 1.875 9.32812C2.09375 9.42188 2.3125 9.51562 2.53125 9.60938C2.71875 9.67188 2.9375 9.70312 3.1875 9.70312C3.5 9.70312 3.76562 9.64062 3.98438 9.51562C4.20312 9.39062 4.4375 9.32812 4.6875 9.32812C4.84375 9.32812 5.01562 9.375 5.20312 9.46875C5.42188 9.28125 5.6875 9.17188 6 9.14062C6.3125 9.07812 6.60938 9.03125 6.89062 9C7.20312 8.9375 7.48438 8.85938 7.73438 8.76562C7.98438 8.67188 8.15625 8.46875 8.25 8.15625C8.53125 8.25 8.82812 8.29688 9.14062 8.29688C9.51562 8.29688 9.89062 8.25 10.2656 8.15625C10.6406 8.03125 10.9844 7.90625 11.2969 7.78125C11.6094 7.65625 11.8906 7.54688 12.1406 7.45312C12.3906 7.32812 12.5625 7.26562 12.6562 7.26562C12.8125 7.26562 12.9688 7.3125 13.125 7.40625C13.2812 7.46875 13.4375 7.5 13.5938 7.5C13.9062 7.5 14.2031 7.40625 14.4844 7.21875C14.7969 7.03125 15.0781 6.84375 15.3281 6.65625C15.5781 6.78125 15.8125 6.84375 16.0312 6.84375C16.4688 6.84375 16.9062 6.71875 17.3438 6.46875C17.8125 6.21875 18.3125 6.09375 18.8438 6.09375C19.0625 6.09375 19.2344 6.10938 19.3594 6.14062C20.0781 5.79688 20.9375 5.48438 21.9375 5.20312C22.9688 4.92188 23.8906 4.78125 24.7031 4.78125C25.1406 4.40625 25.6562 4.14062 26.25 3.98438C26.8438 3.82812 27.4531 3.70312 28.0781 3.60938C28.7031 3.51562 29.3125 3.39062 29.9062 3.23438C30.5312 3.07812 31.0938 2.8125 31.5938 2.4375C31.75 2.5 31.9375 2.54688 32.1562 2.57812C32.375 2.57812 32.5312 2.64062 32.625 2.76562C32.7812 2.70312 32.8906 2.59375 32.9531 2.4375C33.0156 2.28125 33.0625 2.125 33.0938 1.96875C33.125 1.9375 33.1875 1.92188 33.2812 1.92188C33.4375 1.92188 33.5 1.98438 33.4688 2.10938C33.4375 2.23438 33.5 2.29688 33.6562 2.29688C33.75 2.29688 33.9062 2.25 34.125 2.15625C34.375 2.03125 34.6719 1.90625 35.0156 1.78125C35.3594 1.65625 35.7344 1.54688 36.1406 1.45312C36.5469 1.32812 36.9375 1.26562 37.3125 1.26562H37.5L37.7344 1.21875C37.8906 1.15625 38.0625 1.10938 38.25 1.07812C38.4375 1.01562 38.6094 0.953125 38.7656 0.890625C38.9531 0.828125 39.0781 0.796875 39.1406 0.796875C39.8281 0.578125 40.5312 0.390625 41.25 0.234375C42 0.078125 42.7344 0 43.4531 0C44.1406 0 44.7812 0.125 45.375 0.375C45.9688 0.59375 46.4688 1 46.875 1.59375Z" fill="#FFFFFF"/>
<path d="M79.9688 45.375C79.875 45.8125 79.6719 46.1719 79.3594 46.4531C79.0781 46.7031 78.7344 46.9062 78.3281 47.0625C77.9219 47.2188 77.5 47.3281 77.0625 47.3906C76.6562 47.4219 76.2812 47.4375 75.9375 47.4375C75.7812 47.4375 75.625 47.4375 75.4688 47.4375C75.3438 47.4062 75.2031 47.3906 75.0469 47.3906C74.8906 47.3906 74.8125 47.4688 74.8125 47.625C74.8125 47.7812 74.7344 47.8906 74.5781 47.9531C74.4219 47.8906 74.2656 47.8438 74.1094 47.8125C73.9531 47.7812 73.7969 47.7656 73.6406 47.7656C73.4219 47.7656 73.2031 47.7812 72.9844 47.8125C72.7969 47.8438 72.6094 47.8594 72.4219 47.8594C72.1719 47.8594 71.9844 47.8281 71.8594 47.7656C71.7656 47.7031 71.6719 47.6406 71.5781 47.5781C71.5156 47.4844 71.4375 47.3906 71.3438 47.2969C71.2812 47.2031 71.1719 47.125 71.0156 47.0625C70.7969 46.9688 70.6094 46.9531 70.4531 47.0156C70.3281 47.0781 70.125 46.9844 69.8438 46.7344C69.4688 46.4219 69.1406 46.0469 68.8594 45.6094C68.6094 45.1406 68.3594 44.6562 68.1094 44.1562C67.8594 43.6562 67.5938 43.1562 67.3125 42.6562C67.0312 42.1562 66.7031 41.7188 66.3281 41.3438H65.9531C65.3906 41.3438 65 41.5781 64.7812 42.0469C64.625 41.9531 64.4688 41.8438 64.3125 41.7188C64.1562 41.5625 63.9844 41.4375 63.7969 41.3438C63.0781 41.5625 62.3281 41.75 61.5469 41.9062C60.7656 42.0625 59.9844 42.1406 59.2031 42.1406H58.5469C58.3594 42.1406 58.1562 42.1094 57.9375 42.0469C57.625 42.1719 57.3438 42.3281 57.0938 42.5156C56.8438 42.6719 56.5625 42.75 56.25 42.75C56.0625 42.75 55.8438 42.6875 55.5938 42.5625C55.4062 42.5625 55.3125 42.6406 55.3125 42.7969C55.3438 42.9531 55.25 43.0312 55.0312 43.0312H54.6094C54.1719 43.0312 53.7344 43.0469 53.2969 43.0781C52.8906 43.1094 52.4688 43.125 52.0312 43.125C51.4375 43.125 50.8281 43.0469 50.2031 42.8906C50.0469 42.9844 49.875 43.0312 49.6875 43.0312C49.5625 43.0938 49.4688 43.2031 49.4062 43.3594C49.3438 43.4844 49.2812 43.6094 49.2188 43.7344C49.1562 43.8281 49.0625 43.9219 48.9375 44.0156C48.8438 44.0781 48.7031 44.0938 48.5156 44.0625C48.4531 44.4375 48.2969 44.7344 48.0469 44.9531C47.7969 45.1719 47.6719 45.5 47.6719 45.9375C47.3281 46.125 47.0469 46.3594 46.8281 46.6406C46.6094 46.9219 46.3906 47.2188 46.1719 47.5312C45.9531 47.8438 45.7188 48.1406 45.4688 48.4219C45.25 48.7031 44.9688 48.9219 44.625 49.0781C44.4688 49.2656 44.4219 49.5625 44.4844 49.9688C44.1406 50.25 43.7188 50.5 43.2188 50.7188C42.7188 50.9375 42.25 51.0469 41.8125 51.0469C40.9062 51.0469 40.2812 50.5625 39.9375 49.5938C39.9375 49.2812 39.9688 48.9531 40.0312 48.6094C40.0625 48.2344 40.125 47.8906 40.2188 47.5781C40.3125 47.2344 40.4531 46.9375 40.6406 46.6875C40.8281 46.4062 41.0938 46.2031 41.4375 46.0781C41.4375 45.7969 41.3438 45.6094 41.1562 45.5156C40.9688 45.3906 40.8906 45.1875 40.9219 44.9062C41.7656 44.5 42.5 43.9688 43.125 43.3125C43.75 42.6562 44.3125 41.9688 44.8125 41.25C45.3438 40.5 45.875 39.75 46.4062 39C46.9375 38.25 47.5312 37.5781 48.1875 36.9844V36C49.125 35 49.7344 33.875 50.0156 32.625C50.3594 32.5625 50.5781 32.4062 50.6719 32.1562C50.7969 31.9062 50.8594 31.6094 50.8594 31.2656C51.0156 31.2656 51.1094 31.2031 51.1406 31.0781C51.2031 30.9219 51.3438 30.875 51.5625 30.9375C51.8438 30.1875 52.1562 29.5 52.5 28.875C52.8438 28.25 53.1875 27.625 53.5312 27C53.875 26.3438 54.1719 25.6719 54.4219 24.9844C54.7031 24.2969 54.9062 23.5312 55.0312 22.6875C55.4688 22.6562 55.7031 22.4531 55.7344 22.0781C55.7969 21.6719 55.8594 21.3125 55.9219 21C56.3906 20.5625 56.7344 20.0469 56.9531 19.4531C57.2031 18.8594 57.4219 18.25 57.6094 17.625C57.7969 16.9688 58 16.3281 58.2188 15.7031C58.4688 15.0469 58.8125 14.4688 59.25 13.9688V13.8281C59.25 13.6719 59.1875 13.5781 59.0625 13.5469C58.9375 13.4844 58.875 13.375 58.875 13.2188C58.9062 13.1875 58.9219 13.1562 58.9219 13.125C59.2969 12.9688 59.5781 12.7188 59.7656 12.375C59.9531 12 60.2344 11.7344 60.6094 11.5781C61.2656 12.1094 61.8438 12.4375 62.3438 12.5625C62.8438 12.6562 63.5 12.7344 64.3125 12.7969C64.7188 13.2344 64.9375 13.7656 64.9688 14.3906C65.0312 14.9844 65.1406 15.5781 65.2969 16.1719C65.5469 17.1719 65.8125 18.1562 66.0938 19.125C66.4062 20.0625 66.6406 21.0312 66.7969 22.0312C66.8906 22.625 67.0625 23.1875 67.3125 23.7188C67.5625 24.25 67.7344 24.7969 67.8281 25.3594C67.8906 25.7969 67.8906 26.2969 67.8281 26.8594C67.7656 27.3906 67.8281 27.8594 68.0156 28.2656L68.3438 29.0156C68.5 29.3594 68.625 29.7188 68.7188 30.0938C68.8438 30.4688 68.9531 30.8438 69.0469 31.2188C69.2969 32.1562 69.5156 33.1719 69.7031 34.2656C69.9219 35.3281 70.25 36.2969 70.6875 37.1719C70.8438 37.4844 71.0781 37.7031 71.3906 37.8281C71.7344 37.9531 72.1094 38.0469 72.5156 38.1094C72.9219 38.1406 73.3125 38.1562 73.6875 38.1562C74.0938 38.125 74.4375 38.1094 74.7188 38.1094H75.1875C75.375 38.1094 75.5625 38.1406 75.75 38.2031C75.875 38.4531 75.9375 38.6719 75.9375 38.8594C75.9375 39.2344 75.8125 39.5312 75.5625 39.75C75.3125 39.9688 75.1875 40.2188 75.1875 40.5C75.1875 40.6562 75.25 40.8281 75.375 41.0156C75.25 40.9844 75.0625 40.9688 74.8125 40.9688C74.0938 40.9688 73.3906 41.0938 72.7031 41.3438C72.9531 41.875 73.2812 42.3281 73.6875 42.7031C74.125 43.0469 74.5781 43.375 75.0469 43.6875C75.3594 43.4375 75.6875 43.3125 76.0312 43.3125C76.4062 43.3125 76.75 43.4062 77.0625 43.5938C77.4062 43.75 77.7656 43.8281 78.1406 43.8281C78.4219 43.8281 78.625 43.7812 78.75 43.6875C79 43.9688 79.2031 44.2656 79.3594 44.5781C79.5156 44.8594 79.7188 45.125 79.9688 45.375ZM65.2969 37.875C65.2344 37.3438 65.125 36.9688 64.9688 36.75C64.8438 36.5 64.7344 36.2031 64.6406 35.8594C64.5156 35.4219 64.4219 34.9531 64.3594 34.4531C64.3281 33.9531 64.2656 33.4688 64.1719 33C63.9531 31.9375 63.7031 30.875 63.4219 29.8125C63.1719 28.75 62.8438 27.7188 62.4375 26.7188C62.5625 26.5312 62.625 26.3594 62.625 26.2031V26.0625C62.3438 25.75 62.1406 25.375 62.0156 24.9375C61.8906 24.4688 61.7656 24.0156 61.6406 23.5781C61.5469 23.1094 61.4062 22.6875 61.2188 22.3125C61.0625 21.9062 60.7969 21.5781 60.4219 21.3281C60.3281 21.5156 60.2812 21.7344 60.2812 21.9844C60.2812 22.2031 60.2969 22.4062 60.3281 22.5938C60.3906 22.7812 60.4219 22.9844 60.4219 23.2031C60.1094 23.3594 59.875 23.6094 59.7188 23.9531C59.5938 24.2656 59.375 24.5156 59.0625 24.7031C58.8125 25.7031 58.4531 26.6562 57.9844 27.5625C57.5156 28.4375 57.0156 29.3125 56.4844 30.1875C55.9844 31.0625 55.5 31.9531 55.0312 32.8594C54.5625 33.7344 54.1875 34.6562 53.9062 35.625C53.5 35.9062 53.2188 36.2656 53.0625 36.7031C52.9375 37.1406 52.875 37.5781 52.875 38.0156C53.1562 38.1719 53.4688 38.2656 53.8125 38.2969C54.1875 38.2969 54.5469 38.2969 54.8906 38.2969C55.2344 38.2969 55.5625 38.3281 55.875 38.3906C56.1875 38.4531 56.4688 38.6094 56.7188 38.8594C57.125 38.7344 57.5625 38.6562 58.0312 38.625C58.5312 38.5625 58.9375 38.4219 59.25 38.2031C59.875 38.4219 60.5469 38.5312 61.2656 38.5312C61.6406 38.5312 62 38.5 62.3438 38.4375C62.7188 38.375 63.0781 38.2969 63.4219 38.2031C63.7031 38.2656 63.9219 38.375 64.0781 38.5312C64.2344 38.6562 64.4688 38.7031 64.7812 38.6719C64.9375 38.5469 65.0312 38.4219 65.0625 38.2969C65.0938 38.1406 65.1719 38 65.2969 37.875Z" fill="#FFFFFF"/>
<path d="M124.688 42.8906C124.531 43.3906 124.484 43.8906 124.547 44.3906C124.453 44.5156 124.344 44.5938 124.219 44.625C124.094 44.6562 123.969 44.7031 123.844 44.7656C123.719 44.7969 123.609 44.8594 123.516 44.9531C123.453 45.0156 123.453 45.1562 123.516 45.375C122.484 45.4375 121.5 45.6562 120.562 46.0312C119.625 46.4062 118.703 46.8125 117.797 47.25C117.328 47.0938 116.922 46.9062 116.578 46.6875C116.234 46.4688 115.797 46.3281 115.266 46.2656C114.734 45.2031 114.234 44.0938 113.766 42.9375C113.328 41.75 113.109 40.5625 113.109 39.375C113.109 38.5 113.266 37.7031 113.578 36.9844C113.578 36.0469 113.656 35.125 113.812 34.2188C113.969 33.3125 114.141 32.4219 114.328 31.5469C114.547 30.6406 114.734 29.7344 114.891 28.8281C115.047 27.9219 115.125 27 115.125 26.0625V25.0312C115.062 25.0312 114.984 25.1094 114.891 25.2656C114.797 25.3906 114.703 25.5469 114.609 25.7344C114.547 25.8906 114.484 26.0469 114.422 26.2031C114.359 26.3594 114.312 26.4531 114.281 26.4844C113.75 26.8906 113.328 27.4062 113.016 28.0312C112.734 28.625 112.422 29.1875 112.078 29.7188C111.641 30.375 111.172 31.0156 110.672 31.6406C110.203 32.2656 109.609 32.75 108.891 33.0938V33.1875C108.891 33.3438 108.844 33.4531 108.75 33.5156C108.656 33.5781 108.641 33.7344 108.703 33.9844C107.922 34.2344 107.188 34.5938 106.5 35.0625C105.844 35.5312 105.297 36.125 104.859 36.8438C104.234 37 103.641 37.2188 103.078 37.5C102.547 37.75 102 38.0312 101.438 38.3438C101.188 38.4688 100.922 38.625 100.641 38.8125C100.359 39 100.078 39.125 99.7969 39.1875C99.5469 39.2812 99.2031 39.3438 98.7656 39.375C98.3594 39.4062 97.9219 39.4375 97.4531 39.4688C97.0156 39.5 96.5781 39.5156 96.1406 39.5156H95.1094C94.9531 39.5156 94.75 39.4375 94.5 39.2812C94.25 39.125 93.9688 38.9531 93.6562 38.7656C93.375 38.5781 93.0781 38.4062 92.7656 38.25C92.4531 38.0625 92.1562 37.9375 91.875 37.875C91.625 37.0625 91.2656 36.3438 90.7969 35.7188C90.3594 35.0625 89.8906 34.4062 89.3906 33.75C89.2344 33 89.0156 32.2188 88.7344 31.4062C88.4844 30.5938 88.0312 29.9219 87.375 29.3906C87.5312 29.1719 87.6094 28.9219 87.6094 28.6406C87.6094 28.2969 87.5312 27.9688 87.375 27.6562C87.2188 27.3438 87.1406 27 87.1406 26.625C87.1406 26.375 87.1562 26.1875 87.1875 26.0625C86.8438 26.4375 86.5938 26.9219 86.4375 27.5156C86.3125 28.0781 86.25 28.5938 86.25 29.0625C86.25 29.4375 86.2969 29.7812 86.3906 30.0938C86.0781 30.5312 85.875 31.0781 85.7812 31.7344C85.7188 32.3906 85.6875 32.9688 85.6875 33.4688C85.6875 34.0938 85.7344 34.7031 85.8281 35.2969C85.3281 35.7969 85.0781 36.4062 85.0781 37.125C85.0781 37.5312 85.1719 37.8906 85.3594 38.2031C85.3594 38.3281 85.3281 38.4219 85.2656 38.4844C85.2031 38.5469 85.125 38.5938 85.0312 38.625C84.9688 38.6562 84.8906 38.7031 84.7969 38.7656C84.7344 38.7969 84.7031 38.875 84.7031 39C84.7031 39.1562 84.7031 39.3281 84.7031 39.5156C84.7344 39.7031 84.75 39.8906 84.75 40.0781C84.75 40.5156 84.7344 40.9688 84.7031 41.4375C84.6719 41.9062 84.6562 42.3594 84.6562 42.7969C84.6562 43.7031 84.7344 44.3594 84.8906 44.7656C85.0781 45.1406 85.2969 45.4219 85.5469 45.6094C85.8281 45.7969 86.125 45.9844 86.4375 46.1719C86.75 46.3594 87.0625 46.7188 87.375 47.25C87.2812 47.5312 87.1094 47.7656 86.8594 47.9531C86.6406 48.1094 86.4219 48.2812 86.2031 48.4688C86.0156 48.625 85.8438 48.8125 85.6875 49.0312C85.5312 49.25 85.4688 49.5625 85.5 49.9688H85.2656C84.8594 49.9688 84.4688 50.0312 84.0938 50.1562C83.7188 50.2812 83.3281 50.3438 82.9219 50.3438C82.8281 50.3438 82.7344 50.3281 82.6406 50.2969C82.5469 50.2969 82.4531 50.2969 82.3594 50.2969L81.8906 50.0156C81.7344 49.9219 81.5781 49.875 81.4219 49.875C81.2656 49.875 81.0625 49.9062 80.8125 49.9688C80.375 48.5625 80.0312 47.1094 79.7812 45.6094C79.5625 44.1094 79.4531 42.6406 79.4531 41.2031C79.4531 41.0469 79.4844 40.8906 79.5469 40.7344C79.6406 40.5469 79.7656 40.4844 79.9219 40.5469V39.6562C79.9219 38.6875 80 37.75 80.1562 36.8438C80.3438 35.9062 80.4375 34.9375 80.4375 33.9375C80.4375 33.6562 80.4219 33.375 80.3906 33.0938C80.3906 32.8125 80.375 32.5469 80.3438 32.2969C80.5 31.7656 80.6562 31.2344 80.8125 30.7031C81 30.1406 81.0938 29.5625 81.0938 28.9688C81.0938 28.7188 81.0469 28.4219 80.9531 28.0781C81.2031 27.8906 81.3906 27.6562 81.5156 27.375C81.6406 27.0625 81.7344 26.7344 81.7969 26.3906C81.8594 26.0156 81.9062 25.6562 81.9375 25.3125C81.9688 24.9688 82 24.6562 82.0312 24.375C82.3438 23.75 82.5156 23.0781 82.5469 22.3594C82.5781 21.6406 82.7344 20.9688 83.0156 20.3438C82.9844 20.2188 82.9688 20 82.9688 19.6875C82.9688 19.0625 83.0625 18.4375 83.25 17.8125C83.4688 17.1562 83.8906 16.6562 84.5156 16.3125C85.0781 16.5312 85.7344 16.6406 86.4844 16.6406C87.2031 16.6406 87.8906 16.5312 88.5469 16.3125C88.7344 16.375 88.9062 16.4531 89.0625 16.5469C89.2188 16.6094 89.375 16.6875 89.5312 16.7812C89.7188 16.8438 89.9062 16.9062 90.0938 16.9688C90.2812 17 90.5 17 90.75 16.9688C91.0625 17.875 91.3281 18.7969 91.5469 19.7344C91.7969 20.6719 91.9844 21.625 92.1094 22.5938C92.1719 23 92.1875 23.4375 92.1562 23.9062C92.1562 24.375 92.1875 24.8125 92.25 25.2188C92.2812 25.4688 92.3594 25.7031 92.4844 25.9219C92.6094 26.1094 92.7344 26.3281 92.8594 26.5781C92.9844 26.8281 93.0781 27.1094 93.1406 27.4219C93.2344 27.7344 93.2656 28.125 93.2344 28.5938C93.5781 29.4062 93.9531 30.1875 94.3594 30.9375C94.7969 31.6562 95.2656 32.375 95.7656 33.0938C96.0469 33.1875 96.2969 33.3125 96.5156 33.4688C96.7344 33.5938 96.875 33.8125 96.9375 34.125C97.2188 34.125 97.4688 34.1719 97.6875 34.2656L98.4844 34.5C99.6719 34.125 100.766 33.625 101.766 33C102.797 32.375 103.875 31.8438 105 31.4062C106.375 30.0625 107.562 28.5781 108.562 26.9531C109.562 25.2969 110.562 23.6562 111.562 22.0312V21C111.75 20.9062 111.906 20.7969 112.031 20.6719C112.188 20.5156 112.375 20.4062 112.594 20.3438C112.625 19.9688 112.703 19.6094 112.828 19.2656C112.984 18.8906 113.141 18.5469 113.297 18.2344C113.484 17.8906 113.641 17.5625 113.766 17.25C113.891 16.9062 113.953 16.5469 113.953 16.1719C113.953 15.9531 113.938 15.7656 113.906 15.6094C114.375 15.1406 114.938 14.9062 115.594 14.9062C116.219 14.9062 116.844 15.0625 117.469 15.375C118.125 15.6562 118.734 15.9219 119.297 16.1719C119.641 16.9219 119.891 17.7188 120.047 18.5625C120.234 19.375 120.359 20.2188 120.422 21.0938C120.484 21.9688 120.516 22.8438 120.516 23.7188V27.0469C120.484 27.2969 120.391 27.4844 120.234 27.6094C120.109 27.7031 120.016 27.8594 119.953 28.0781V28.5469C119.953 28.7031 119.938 28.8594 119.906 29.0156C119.906 29.6719 119.828 30.3594 119.672 31.0781C119.516 31.9844 119.312 32.9062 119.062 33.8438C118.844 34.75 118.734 35.6719 118.734 36.6094C118.734 36.9531 118.75 37.2969 118.781 37.6406C118.812 37.9844 118.875 38.3281 118.969 38.6719C118.812 38.9531 118.734 39.3125 118.734 39.75C118.734 40.25 118.812 40.7188 118.969 41.1562C119.156 41.5625 119.375 41.9688 119.625 42.375C120.062 42.375 120.5 42.3594 120.938 42.3281C121.375 42.2969 121.828 42.2812 122.297 42.2812C122.734 42.2812 123.141 42.3281 123.516 42.4219C123.891 42.4844 124.281 42.6406 124.688 42.8906Z" fill="#FFFFFF"/>
<path d="M179.672 37.125C179.547 37.6562 179.297 38.0781 178.922 38.3906C178.578 38.6719 178.172 38.8906 177.703 39.0469C177.234 39.2031 176.734 39.3125 176.203 39.375C175.703 39.4375 175.25 39.4844 174.844 39.5156C174.406 39.7344 174.016 39.9844 173.672 40.2656C173.328 40.5156 172.969 40.7656 172.594 41.0156C169.844 41.3594 167.125 41.7812 164.438 42.2812C161.75 42.7812 159.031 43.2031 156.281 43.5469C155.906 43.7969 155.422 43.9688 154.828 44.0625C154.234 44.125 153.609 44.1875 152.953 44.25C152.328 44.2812 151.703 44.3594 151.078 44.4844C150.453 44.5781 149.906 44.7656 149.438 45.0469C147.406 45.1406 145.438 45.4844 143.531 46.0781C143.188 45.9844 142.828 45.9062 142.453 45.8438C142.109 45.7812 141.766 45.75 141.422 45.75C141.172 45.75 140.891 45.7812 140.578 45.8438C140.266 45.875 140.016 46.0156 139.828 46.2656C139.078 45.6719 138.188 45.4531 137.156 45.6094C136.312 45.2344 135.562 44.7656 134.906 44.2031C134.281 43.6406 133.797 42.9219 133.453 42.0469C133.484 41.5469 133.484 41.1719 133.453 40.9219C133.422 40.6406 133.203 40.3438 132.797 40.0312C132.797 39.8125 132.859 39.6406 132.984 39.5156C133.141 39.3906 133.234 39.2188 133.266 39C133.141 38.7812 133.078 38.5156 133.078 38.2031C133.078 37.6719 133.172 37.1406 133.359 36.6094C133.547 36.0469 133.578 35.5 133.453 34.9688C133.891 34.25 134.391 33.5781 134.953 32.9531C135.516 32.2969 136.078 31.6719 136.641 31.0781C137.234 30.4531 137.812 29.8281 138.375 29.2031C138.969 28.5781 139.516 27.9219 140.016 27.2344C140.609 27.0469 141.141 26.7656 141.609 26.3906C142.109 25.9844 142.578 25.5625 143.016 25.125C143.484 24.6875 143.953 24.2656 144.422 23.8594C144.891 23.4531 145.438 23.125 146.062 22.875C146.125 22.6875 146.219 22.5312 146.344 22.4062C146.5 22.25 146.656 22.1094 146.812 21.9844C146.969 21.8594 147.109 21.7188 147.234 21.5625C147.391 21.4062 147.5 21.2188 147.562 21H147.141C145.734 21 144.328 21.0938 142.922 21.2812C141.516 21.4375 140.109 21.6406 138.703 21.8906C137.328 22.1094 135.953 22.3438 134.578 22.5938C133.203 22.8438 131.812 23.0469 130.406 23.2031C129.875 23.4844 129.297 23.7344 128.672 23.9531C128.047 24.1719 127.422 24.3906 126.797 24.6094C126.203 24.8281 125.625 25.0781 125.062 25.3594C124.469 25.6406 123.953 25.9844 123.516 26.3906C123.422 26.4219 123.281 26.4375 123.094 26.4375C122.75 26.4375 122.453 26.375 122.203 26.25C121.953 26.0938 121.672 25.9844 121.359 25.9219C121.297 25.4219 121.203 24.9531 121.078 24.5156C120.922 24.0469 120.844 23.5625 120.844 23.0625C120.844 22.6562 120.906 22.3125 121.031 22.0312C121.469 22.0312 121.781 21.8906 121.969 21.6094C122.125 21.3281 122.375 21.0781 122.719 20.8594C122.812 20.9531 122.906 21 123 21C123.156 21 123.297 20.9375 123.422 20.8125C123.547 20.6875 123.703 20.5625 123.891 20.4375C124.078 20.3125 124.297 20.2031 124.547 20.1094C124.797 20.0156 125.125 19.9844 125.531 20.0156C126.469 19.5156 127.344 19.2031 128.156 19.0781C129 18.9531 129.922 18.8125 130.922 18.6562C131.172 18.5938 131.344 18.5156 131.438 18.4219C131.531 18.3281 131.641 18.1875 131.766 18L132.75 18.0469C134.094 18.1094 135.438 18.0312 136.781 17.8125C138.125 17.5625 139.453 17.2969 140.766 17.0156C142.109 16.7344 143.453 16.5 144.797 16.3125C146.172 16.0938 147.547 16.0469 148.922 16.1719C149.266 16.0156 149.609 15.9219 149.953 15.8906C150.328 15.8594 150.703 15.8438 151.078 15.8438C151.578 15.8438 152.125 15.8906 152.719 15.9844C153.312 16.0781 153.859 16.25 154.359 16.5C154.891 16.75 155.312 17.0938 155.625 17.5312C155.969 17.9375 156.141 18.4531 156.141 19.0781C156.141 19.4219 156.062 19.7344 155.906 20.0156C155.75 20.2969 155.562 20.5625 155.344 20.8125C155.125 21.0625 154.891 21.3125 154.641 21.5625C154.391 21.7812 154.156 22 153.938 22.2188C153.594 22.5938 153.266 23 152.953 23.4375C152.672 23.8438 152.328 24.2188 151.922 24.5625C151.703 24.5312 151.531 24.5781 151.406 24.7031C151.312 24.8281 151.156 24.8906 150.938 24.8906C150.531 25.0781 150.297 25.4219 150.234 25.9219C149.391 26.2656 148.578 26.6719 147.797 27.1406C147.016 27.6094 146.375 28.25 145.875 29.0625C145.219 29.4688 144.594 29.9375 144 30.4688C143.438 30.9688 142.891 31.5 142.359 32.0625C141.828 32.625 141.297 33.2031 140.766 33.7969C140.266 34.3594 139.734 34.9062 139.172 35.4375C139.109 35.9062 139 36.3438 138.844 36.75C138.688 37.1562 138.516 37.5781 138.328 38.0156C138.328 38.3594 138.438 38.6562 138.656 38.9062C138.875 39.1562 138.984 39.4844 138.984 39.8906C139.766 40.0469 140.531 40.1719 141.281 40.2656C142.062 40.3281 142.859 40.3594 143.672 40.3594C144.453 40.3594 145.234 40.3125 146.016 40.2188C146.797 40.0938 147.531 39.8594 148.219 39.5156C148.688 39.6406 149.172 39.7031 149.672 39.7031C150.359 39.7031 151.016 39.6406 151.641 39.5156C152.297 39.3594 152.953 39.2969 153.609 39.3281C154.391 39.0469 155.188 38.8594 156 38.7656C156.844 38.6406 157.672 38.5469 158.484 38.4844C159.297 38.3906 160.109 38.2812 160.922 38.1562C161.766 38.0312 162.578 37.7969 163.359 37.4531C163.797 37.5469 164.203 37.5625 164.578 37.5C164.953 37.4375 165.359 37.4062 165.797 37.4062C166.109 37.4062 166.484 37.5 166.922 37.6875C167.422 37.4375 167.938 37.2188 168.469 37.0312C169.031 36.8438 169.594 36.75 170.156 36.75C170.375 36.75 170.594 36.7656 170.812 36.7969C171.031 36.8281 171.234 36.8906 171.422 36.9844C171.484 36.9531 171.641 36.8906 171.891 36.7969C172.141 36.7031 172.406 36.6094 172.688 36.5156C172.969 36.4219 173.234 36.3438 173.484 36.2812C173.734 36.1875 173.891 36.1406 173.953 36.1406C174.203 36.1406 174.312 36.2188 174.281 36.375C174.281 36.5 174.359 36.5625 174.516 36.5625C175.047 36.5625 175.562 36.4688 176.062 36.2812C176.562 36.0625 177.078 35.9531 177.609 35.9531C177.828 35.9531 178.031 35.9688 178.219 36C178.406 36.0312 178.625 36.0781 178.875 36.1406C179 36.3281 179.109 36.5312 179.203 36.75C179.297 36.9375 179.453 37.0625 179.672 37.125Z" fill="#FFFFFF"/>
</svg>
